<!DOCTYPE svg PUBLIC "-//W3C//DTD SVG 1.1//EN" "http://www.w3.org/Graphics/SVG/1.1/DTD/svg11.dtd">
<!-- Uploaded to: SVG Repo, www.svgrepo.com, Transformed by: SVG Repo Mixer Tools -->
<svg height="800px" width="800px" version="1.1" id="Layer_1" xmlns="http://www.w3.org/2000/svg" xmlns:xlink="http://www.w3.org/1999/xlink" viewBox="-51.2 -51.2 614.40 614.40" xml:space="preserve" fill="#000000" stroke="#000000" stroke-width="0.00512">
<g id="SVGRepo_bgCarrier" stroke-width="0"/>
<g id="SVGRepo_tracerCarrier" stroke-linecap="round" stroke-linejoin="round" stroke="#CCCCCC" stroke-width="6.144"> <path style="fill:#EFF2FA;" d="M379.586,512H132.414c-14.626,0-26.483-11.857-26.483-26.483V26.483 C105.931,11.857,117.788,0,132.414,0h247.172c14.626,0,26.483,11.857,26.483,26.483v459.034 C406.069,500.143,394.212,512,379.586,512z"/> <g> <path style="fill:#ed0919;" d="M259.961,187.361c16.948,21.921,42.788,47.766,64.706,64.716c2.605,2.015,2.605,5.908,0,7.922 c-21.917,16.95-47.758,42.795-64.706,64.716c-2.015,2.605-5.908,2.605-7.923,0c-16.948-21.921-42.788-47.766-64.706-64.716 c-2.605-2.015-2.605-5.908,0-7.922c21.917-16.95,47.758-42.795,64.706-64.716C254.054,184.756,257.947,184.756,259.961,187.361z"/> <path style="fill:#ed0919;" d="M169.706,27.448c8.474,10.961,21.395,23.883,32.353,32.359c1.302,1.007,1.302,2.954,0,3.961 c-10.958,8.476-23.88,21.398-32.353,32.359c-1.007,1.303-2.954,1.303-3.961,0c-8.474-10.961-21.395-23.883-32.353-32.359 c-1.302-1.007-1.302-2.954,0-3.961c10.958-8.476,23.88-21.398,32.353-32.359C166.751,26.145,168.698,26.145,169.706,27.448z"/> <path style="fill:#ed0919;" d="M342.294,484.552c-8.474-10.961-21.395-23.883-32.353-32.359c-1.302-1.007-1.302-2.954,0-3.961 c10.958-8.476,23.88-21.398,32.353-32.359c1.007-1.303,2.954-1.303,3.961,0c8.474,10.961,21.395,23.883,32.353,32.359 c1.302,1.007,1.302,2.954,0,3.961c-10.958,8.476-23.88,21.398-32.353,32.359C345.249,485.855,343.302,485.855,342.294,484.552z"/> </g> </g>
<g id="SVGRepo_iconCarrier"> <path style="fill:#EFF2FA;" d="M379.586,512H132.414c-14.626,0-26.483-11.857-26.483-26.483V26.483 C105.931,11.857,117.788,0,132.414,0h247.172c14.626,0,26.483,11.857,26.483,26.483v459.034 C406.069,500.143,394.212,512,379.586,512z"/> <g> <path style="fill:#ed0919;" d="M259.961,187.361c16.948,21.921,42.788,47.766,64.706,64.716c2.605,2.015,2.605,5.908,0,7.922 c-21.917,16.95-47.758,42.795-64.706,64.716c-2.015,2.605-5.908,2.605-7.923,0c-16.948-21.921-42.788-47.766-64.706-64.716 c-2.605-2.015-2.605-5.908,0-7.922c21.917-16.95,47.758-42.795,64.706-64.716C254.054,184.756,257.947,184.756,259.961,187.361z"/> <path style="fill:#ed0919;" d="M169.706,27.448c8.474,10.961,21.395,23.883,32.353,32.359c1.302,1.007,1.302,2.954,0,3.961 c-10.958,8.476-23.88,21.398-32.353,32.359c-1.007,1.303-2.954,1.303-3.961,0c-8.474-10.961-21.395-23.883-32.353-32.359 c-1.302-1.007-1.302-2.954,0-3.961c10.958-8.476,23.88-21.398,32.353-32.359C166.751,26.145,168.698,26.145,169.706,27.448z"/> <path style="fill:#ed0919;" d="M342.294,484.552c-8.474-10.961-21.395-23.883-32.353-32.359c-1.302-1.007-1.302-2.954,0-3.961 c10.958-8.476,23.88-21.398,32.353-32.359c1.007-1.303,2.954-1.303,3.961,0c8.474,10.961,21.395,23.883,32.353,32.359 c1.302,1.007,1.302,2.954,0,3.961c-10.958,8.476-23.88,21.398-32.353,32.359C345.249,485.855,343.302,485.855,342.294,484.552z"/> </g> </g>
</svg>