<?xml version="1.0" encoding="iso-8859-1"?>
<!-- Uploaded to: SVG Repo, www.svgrepo.com, Generator: SVG Repo Mixer Tools -->
<svg height="800px" width="800px" version="1.1" id="Layer_1" xmlns="http://www.w3.org/2000/svg" xmlns:xlink="http://www.w3.org/1999/xlink" 
	 viewBox="0 0 496.158 496.158" xml:space="preserve">
<path style="fill:#4ABC96;" d="M248.082,0.003C111.07,0.003,0,111.063,0,248.085c0,137.001,111.07,248.07,248.082,248.07
	c137.006,0,248.076-111.069,248.076-248.07C496.158,111.062,385.088,0.003,248.082,0.003z"/>
<path style="fill:#FFFFFF;" d="M327.058,109.074h-157.96c-10.468,0-18.955,8.487-18.955,18.956v240.1
	c0,10.469,8.487,18.955,18.955,18.955h157.961c10.471,0,18.955-8.486,18.955-18.955v-240.1
	C346.014,117.56,337.529,109.074,327.058,109.074z"/>
<g>
	<path style="fill:#3A3A3A;" d="M287.939,229.87c-5.252-7.312-39.224-41.005-39.771-41.607v-0.028c0,0-0.011,0.012-0.014,0.014
		c-0.003-0.002-0.013-0.014-0.013-0.014v0.028c-0.55,0.602-33.921,34.225-39.772,41.607c-5.854,7.382-24.492,30.001-1.531,47.452
		c0,0,25.404,15.815,38.708-11.289c-1.127,27.128-19.625,41.891-19.625,41.891h44.392c0,0-18.566-14.821-19.629-42.048
		c13.282,27.326,38.786,11.446,38.786,11.446C312.431,259.871,293.191,237.181,287.939,229.87z"/>
	<path style="fill:#3A3A3A;" d="M187.754,143.902c-0.627-0.571-1.427-1.955-2.401-4.154l-10.208-23.215h-0.397l-10.125,22.588
		c-0.96,2.158-1.768,3.581-2.422,4.27s-1.488,1.11-2.505,1.263v0.772h9.416v-0.772c-1.476-0.112-2.401-0.279-2.777-0.501
		c-0.64-0.376-0.961-0.961-0.961-1.754c0-0.598,0.195-1.357,0.585-2.276l1.19-2.755h10l1.503,3.528
		c0.39,0.918,0.599,1.441,0.626,1.566c0.084,0.264,0.126,0.522,0.126,0.772c0,0.417-0.153,0.738-0.46,0.96
		c-0.445,0.307-1.218,0.46-2.317,0.46h-0.563v0.772h13.695v-0.772C188.894,144.584,188.226,144.333,187.754,143.902z
		 M167.879,135.823l4.343-9.75l4.217,9.75H167.879z"/>
	<path style="fill:#3A3A3A;" d="M184.022,161.547c-1.099-1.53-8.204-8.578-8.32-8.704v-0.006l-0.002,0.003l-0.003-0.003v0.006
		c-0.115,0.126-7.096,7.16-8.32,8.704c-1.225,1.544-5.123,6.276-0.32,9.926c0,0,5.314,3.309,8.098-2.361
		c-0.236,5.675-4.105,8.763-4.105,8.763h9.287c0,0-3.885-3.1-4.107-8.796c2.778,5.716,8.113,2.394,8.113,2.394
		C189.146,167.823,185.121,163.077,184.022,161.547z"/>
	<path style="fill:#3A3A3A;" d="M326.884,348.215v0.772c1.475,0.112,2.4,0.279,2.776,0.501c0.64,0.375,0.96,0.96,0.96,1.753
		c0,0.598-0.195,1.357-0.584,2.276l-1.19,2.755h-10l-1.503-3.528c-0.391-0.919-0.599-1.441-0.627-1.566
		c-0.083-0.264-0.125-0.522-0.125-0.772c0-0.417,0.153-0.738,0.46-0.96c0.445-0.306,1.218-0.459,2.317-0.459h0.563v-0.772h-13.695
		v0.772c0.863,0.07,1.53,0.32,2.004,0.752c0.626,0.571,1.427,1.955,2.401,4.154l10.208,23.215h0.397l10.125-22.589
		c0.96-2.158,1.768-3.581,2.422-4.27s1.488-1.11,2.505-1.263v-0.772h-9.414V348.215z M323.772,367.567l-4.217-9.75h8.56
		L323.772,367.567z"/>
	<path style="fill:#3A3A3A;" d="M329.644,321.906c0,0-5.314-3.309-8.098,2.361c0.236-5.675,4.105-8.763,4.105-8.763h-9.287
		c0,0,3.885,3.1,4.107,8.796c-2.778-5.716-8.113-2.394-8.113-2.394c-4.805,3.65-0.779,8.396,0.319,9.926s8.204,8.578,8.32,8.704
		v0.006l0.002-0.003l0.003,0.003v-0.006c0.115-0.126,7.096-7.16,8.32-8.704C330.549,330.287,334.447,325.556,329.644,321.906z"/>
</g>
</svg>